<svg xmlns="http://www.w3.org/2000/svg" xmlns:xlink="http://www.w3.org/1999/xlink" width="260" zoomAndPan="magnify" viewBox="0 0 194.87999 50.249999" height="67" preserveAspectRatio="xMidYMid meet" version="1.0"><defs><g/><clipPath id="e7d6506500"><path d="M 177 12 L 193.386719 12 L 193.386719 33 L 177 33 Z M 177 12 " clip-rule="nonzero"/></clipPath></defs><g fill="#2b2b2b" fill-opacity="1"><g transform="translate(2.431279, 32.268761)"><g><path d="M 13.683594 -10.757812 C 13.171875 -11.496094 12.207031 -11.835938 11.410156 -11.355469 C 10.558594 -10.871094 10.445312 -9.90625 10.816406 -9.082031 C 10.984375 -8.6875 11.015625 -8.261719 11.042969 -7.804688 C 11.070312 -6.8125 10.957031 -5.734375 10.445312 -4.824219 C 10.277344 -4.484375 9.992188 -4.144531 9.707031 -3.890625 C 8.941406 -3.207031 7.949219 -2.839844 6.898438 -2.808594 C 6.785156 -2.808594 6.640625 -2.839844 6.527344 -2.839844 C 4.683594 -2.953125 3.691406 -4.542969 3.152344 -6.214844 C 2.953125 -6.839844 2.839844 -7.492188 2.867188 -8.175781 C 2.867188 -8.316406 2.867188 -8.488281 2.894531 -8.628906 C 2.894531 -8.800781 2.921875 -8.800781 2.953125 -9.027344 C 3.40625 -11.441406 4.457031 -13.371094 6.386719 -14.847656 C 6.527344 -14.929688 6.640625 -15.015625 6.757812 -15.101562 L 6.925781 -9.621094 C 6.953125 -8.714844 6.925781 -7.777344 7.324219 -6.898438 C 7.636719 -6.214844 8.402344 -5.734375 9.140625 -5.820312 C 9.738281 -5.875 9.621094 -6.757812 9.027344 -6.640625 C 8.203125 -6.5 7.804688 -7.410156 7.636719 -8.0625 L 7.636719 -8.148438 L 7.722656 -8.148438 C 7.777344 -7.976562 7.835938 -7.777344 7.949219 -7.609375 C 8.117188 -7.265625 8.375 -6.984375 8.742188 -6.871094 C 8.800781 -6.871094 8.886719 -6.839844 8.96875 -6.871094 C 9 -6.8125 9.054688 -6.785156 9.140625 -6.726562 C 9.28125 -6.640625 9.507812 -6.726562 9.539062 -6.898438 C 9.621094 -7.265625 9.566406 -7.664062 9.566406 -8.0625 C 9.539062 -8.515625 9.507812 -9 9.507812 -9.480469 L 9.425781 -12.179688 C 9.394531 -13.085938 9.367188 -15.867188 9.425781 -16.351562 C 9.453125 -16.777344 9.480469 -17.117188 9.3125 -17.457031 C 9.3125 -17.941406 8.941406 -18.367188 8.34375 -18.421875 C 7.664062 -18.480469 6.953125 -18.28125 6.386719 -17.941406 C 5.789062 -17.597656 5.222656 -17.230469 4.683594 -16.832031 C 3.519531 -16.011719 2.269531 -14.734375 1.417969 -13.597656 C 0.140625 -11.949219 -0.285156 -9.90625 -0.3125 -7.835938 C -0.3125 -7.210938 -0.226562 -6.585938 -0.113281 -5.988281 C 0.425781 -3.492188 2.269531 -1.417969 4.597656 -0.484375 C 6.984375 0.484375 9.792969 -0.140625 11.722656 -1.703125 C 12.914062 -2.640625 13.625 -4.144531 13.996094 -5.59375 C 14.421875 -7.183594 14.617188 -9.3125 13.683594 -10.757812 Z M 7.324219 -15.5 C 7.238281 -14.449219 7.238281 -13.398438 7.296875 -12.347656 L 7.152344 -12.347656 C 7.066406 -13.285156 6.953125 -14.222656 6.871094 -15.1875 C 7.011719 -15.273438 7.183594 -15.386719 7.324219 -15.5 Z M 10.785156 -9.140625 C 10.785156 -9.167969 10.757812 -9.195312 10.757812 -9.195312 C 10.757812 -9.167969 10.785156 -9.167969 10.785156 -9.140625 Z M 10.816406 -9.082031 C 10.816406 -9.113281 10.785156 -9.113281 10.785156 -9.140625 C 10.785156 -9.113281 10.785156 -9.113281 10.816406 -9.082031 Z M 10.816406 -9.082031 "/></g></g></g><g fill="#2b2b2b" fill-opacity="1"><g transform="translate(17.191537, 32.268761)"><g><path d="M 10.390625 -0.851562 C 11.042969 1.191406 13.144531 1.136719 12.832031 -1.417969 C 12.605469 -3.121094 12.121094 -5.421875 11.753906 -7.097656 C 13.3125 -8.089844 13 -10.644531 10.84375 -10.902344 C 10.644531 -12.605469 10.472656 -16.890625 10.445312 -16.605469 C 10.332031 -15.667969 10.277344 -14.675781 10.246094 -13.710938 C 10.21875 -13.710938 10.21875 -13.710938 10.191406 -13.738281 C 10.078125 -14.847656 9.964844 -16.011719 9.878906 -17.144531 C 9.792969 -18.054688 9.195312 -18.621094 8.375 -18.679688 C 8.148438 -19.132812 7.578125 -19.472656 7.097656 -19.445312 C 5.648438 -19.417969 5.082031 -17.65625 4.570312 -16.550781 C 3.832031 -14.789062 3.378906 -12.945312 2.980469 -11.070312 C -0.398438 -10.558594 -0.398438 -7.464844 1.417969 -7.011719 C 1.449219 -6.925781 1.417969 -6.8125 1.390625 -6.757812 C 1.617188 -6.757812 1.902344 -6.785156 2.15625 -6.8125 C 1.730469 -5.167969 1.449219 -3.519531 1.21875 -1.84375 C 0.851562 0.824219 4.371094 1.21875 4.597656 -1.363281 L 4.769531 -2.640625 C 4.769531 -2.640625 5.25 -5.535156 5.621094 -6.925781 L 5.875 -6.925781 C 5.335938 -5.25 5.082031 -3.519531 4.9375 -1.816406 C 4.910156 -1.476562 5.394531 -1.476562 5.394531 -1.816406 C 5.535156 -3.546875 5.847656 -5.222656 6.273438 -6.925781 L 8.488281 -6.953125 C 8.714844 -5.933594 9.851562 -1.050781 10.390625 -0.851562 Z M 6.1875 -10.617188 C 6.445312 -11.949219 6.785156 -13.085938 7.238281 -14.675781 C 7.523438 -13.371094 7.664062 -11.441406 7.777344 -10.730469 C 7.378906 -10.703125 6.585938 -10.671875 6.1875 -10.617188 Z M 6.1875 -10.617188 "/></g></g></g><g fill="#2b2b2b" fill-opacity="1"><g transform="translate(30.532541, 32.268761)"><g><path d="M 13.597656 -10.304688 C 13.570312 -10.984375 13.570312 -11.667969 13.597656 -12.375 C 13.710938 -13.710938 13.996094 -15.101562 13.824219 -16.4375 C 13.738281 -17.203125 13.257812 -17.828125 12.433594 -17.828125 C 11.695312 -17.828125 11.042969 -17.203125 11.042969 -16.4375 C 11.070312 -15.953125 11.070312 -15.46875 11.070312 -14.988281 L 10.929688 -15.128906 C 10.359375 -15.640625 9.738281 -16.066406 9.113281 -16.464844 C 7.777344 -17.34375 6.386719 -17.96875 4.855469 -18.421875 C 4.683594 -18.480469 4.542969 -18.480469 4.429688 -18.453125 C 3.832031 -18.648438 3.207031 -18.820312 2.582031 -18.878906 C 1.617188 -18.960938 0.792969 -18.367188 0.566406 -17.429688 C 0.339844 -16.492188 0.851562 -15.667969 1.363281 -14.960938 C 2.414062 -13.597656 3.632812 -12.40625 4.96875 -11.328125 L 5.394531 -10.984375 C 5.789062 -10.589844 6.1875 -10.191406 6.558594 -9.765625 C 7.523438 -8.769531 8.429688 -7.75 9.3125 -6.699219 C 9.59375 -6.359375 9.878906 -6.019531 10.132812 -5.675781 C 10.191406 -5.507812 10.277344 -5.363281 10.332031 -5.222656 C 10.445312 -4.996094 10.703125 -4.457031 10.558594 -4.144531 C 10.558594 -4.058594 10.558594 -3.972656 10.472656 -3.890625 C 10.246094 -3.546875 9.679688 -3.492188 9.3125 -3.464844 C 8.6875 -3.40625 8.089844 -3.40625 7.492188 -3.464844 C 7.152344 -3.492188 6.8125 -3.546875 6.472656 -3.660156 C 6.132812 -3.917969 5.820312 -4.230469 5.535156 -4.511719 C 5.023438 -5.054688 4.683594 -5.761719 4.429688 -6.445312 C 3.777344 -8.316406 3.691406 -10.332031 3.09375 -12.207031 C 2.867188 -12.886719 2.300781 -13.144531 1.617188 -13.058594 C 1.050781 -12.972656 0.625 -12.433594 0.511719 -11.921875 C 0.339844 -11.097656 0.511719 -10.21875 0.625 -9.425781 C 0.738281 -8.515625 0.851562 -7.609375 1.078125 -6.726562 C 1.503906 -5.167969 1.816406 -3.578125 1.988281 -1.988281 C 2.042969 -1.703125 2.128906 -1.449219 2.300781 -1.25 C 2.382812 -0.738281 2.667969 -0.253906 2.980469 0.0585938 C 3.265625 0.339844 3.71875 0.339844 4.003906 0.0585938 C 4.371094 -0.253906 4.570312 -0.710938 4.683594 -1.191406 C 5.222656 -0.851562 5.820312 -0.597656 6.445312 -0.453125 C 7.351562 -0.199219 8.429688 -0.0859375 9.394531 -0.226562 L 9.480469 -0.226562 C 11.269531 -0.3125 13.199219 -1.644531 13.257812 -3.492188 C 13.371094 -4.230469 13.199219 -4.996094 12.886719 -5.707031 C 12.71875 -6.472656 12.320312 -7.183594 11.808594 -7.835938 C 11.070312 -8.769531 10.21875 -9.652344 9.394531 -10.53125 C 8.542969 -11.46875 7.636719 -12.375 6.726562 -13.257812 L 5.5625 -14.363281 C 6.300781 -14.191406 7.066406 -13.9375 7.777344 -13.625 C 9.140625 -13 10.390625 -12.121094 11.210938 -10.902344 C 11.242188 -10.902344 11.242188 -10.871094 11.269531 -10.871094 C 11.441406 -9.539062 11.921875 -7.664062 13.3125 -8.003906 C 13.710938 -8.117188 13.9375 -8.542969 13.824219 -8.914062 C 13.738281 -9.394531 13.625 -9.820312 13.597656 -10.304688 Z M 13.597656 -10.304688 "/></g></g></g><g fill="#2b2b2b" fill-opacity="1"><g transform="translate(45.008941, 32.268761)"><g><path d="M 13.597656 -10.304688 C 13.570312 -10.984375 13.570312 -11.667969 13.597656 -12.375 C 13.710938 -13.710938 13.996094 -15.101562 13.824219 -16.4375 C 13.738281 -17.203125 13.257812 -17.828125 12.433594 -17.828125 C 11.695312 -17.828125 11.042969 -17.203125 11.042969 -16.4375 C 11.070312 -15.953125 11.070312 -15.46875 11.070312 -14.988281 L 10.929688 -15.128906 C 10.359375 -15.640625 9.738281 -16.066406 9.113281 -16.464844 C 7.777344 -17.34375 6.386719 -17.96875 4.855469 -18.421875 C 4.683594 -18.480469 4.542969 -18.480469 4.429688 -18.453125 C 3.832031 -18.648438 3.207031 -18.820312 2.582031 -18.878906 C 1.617188 -18.960938 0.792969 -18.367188 0.566406 -17.429688 C 0.339844 -16.492188 0.851562 -15.667969 1.363281 -14.960938 C 2.414062 -13.597656 3.632812 -12.40625 4.96875 -11.328125 L 5.394531 -10.984375 C 5.789062 -10.589844 6.1875 -10.191406 6.558594 -9.765625 C 7.523438 -8.769531 8.429688 -7.75 9.3125 -6.699219 C 9.59375 -6.359375 9.878906 -6.019531 10.132812 -5.675781 C 10.191406 -5.507812 10.277344 -5.363281 10.332031 -5.222656 C 10.445312 -4.996094 10.703125 -4.457031 10.558594 -4.144531 C 10.558594 -4.058594 10.558594 -3.972656 10.472656 -3.890625 C 10.246094 -3.546875 9.679688 -3.492188 9.3125 -3.464844 C 8.6875 -3.40625 8.089844 -3.40625 7.492188 -3.464844 C 7.152344 -3.492188 6.8125 -3.546875 6.472656 -3.660156 C 6.132812 -3.917969 5.820312 -4.230469 5.535156 -4.511719 C 5.023438 -5.054688 4.683594 -5.761719 4.429688 -6.445312 C 3.777344 -8.316406 3.691406 -10.332031 3.09375 -12.207031 C 2.867188 -12.886719 2.300781 -13.144531 1.617188 -13.058594 C 1.050781 -12.972656 0.625 -12.433594 0.511719 -11.921875 C 0.339844 -11.097656 0.511719 -10.21875 0.625 -9.425781 C 0.738281 -8.515625 0.851562 -7.609375 1.078125 -6.726562 C 1.503906 -5.167969 1.816406 -3.578125 1.988281 -1.988281 C 2.042969 -1.703125 2.128906 -1.449219 2.300781 -1.25 C 2.382812 -0.738281 2.667969 -0.253906 2.980469 0.0585938 C 3.265625 0.339844 3.71875 0.339844 4.003906 0.0585938 C 4.371094 -0.253906 4.570312 -0.710938 4.683594 -1.191406 C 5.222656 -0.851562 5.820312 -0.597656 6.445312 -0.453125 C 7.351562 -0.199219 8.429688 -0.0859375 9.394531 -0.226562 L 9.480469 -0.226562 C 11.269531 -0.3125 13.199219 -1.644531 13.257812 -3.492188 C 13.371094 -4.230469 13.199219 -4.996094 12.886719 -5.707031 C 12.71875 -6.472656 12.320312 -7.183594 11.808594 -7.835938 C 11.070312 -8.769531 10.21875 -9.652344 9.394531 -10.53125 C 8.542969 -11.46875 7.636719 -12.375 6.726562 -13.257812 L 5.5625 -14.363281 C 6.300781 -14.191406 7.066406 -13.9375 7.777344 -13.625 C 9.140625 -13 10.390625 -12.121094 11.210938 -10.902344 C 11.242188 -10.902344 11.242188 -10.871094 11.269531 -10.871094 C 11.441406 -9.539062 11.921875 -7.664062 13.3125 -8.003906 C 13.710938 -8.117188 13.9375 -8.542969 13.824219 -8.914062 C 13.738281 -9.394531 13.625 -9.820312 13.597656 -10.304688 Z M 13.597656 -10.304688 "/></g></g></g><g fill="#2b2b2b" fill-opacity="1"><g transform="translate(59.485341, 32.268761)"><g><path d="M 0.398438 -16.378906 C 0.453125 -16.09375 0.851562 -15.867188 1.105469 -15.78125 C 1.53125 -15.613281 1.957031 -15.554688 2.414062 -15.554688 C 2.953125 -15.554688 3.578125 -15.699219 3.917969 -16.09375 C 4.457031 -16.207031 4.996094 -16.464844 5.421875 -16.777344 C 5.648438 -16.945312 5.847656 -17.230469 5.734375 -17.542969 C 5.449219 -18.28125 4.882812 -18.707031 4.117188 -18.90625 C 3.234375 -19.132812 2.355469 -18.792969 1.617188 -18.28125 C 1.5625 -18.253906 1.503906 -18.195312 1.449219 -18.140625 C 1.164062 -17.941406 0.9375 -17.714844 0.738281 -17.429688 C 0.539062 -17.144531 0.285156 -16.746094 0.398438 -16.378906 Z M 2.300781 -15.699219 C 1.957031 -15.726562 1.644531 -15.78125 1.335938 -15.894531 C 1.136719 -15.953125 0.964844 -16.066406 0.792969 -16.207031 C 0.566406 -16.40625 0.597656 -16.605469 0.710938 -16.863281 C 0.824219 -17.058594 0.9375 -17.230469 1.078125 -17.402344 C 0.792969 -16.746094 1.105469 -16.09375 1.929688 -15.925781 C 2.582031 -15.8125 2.953125 -15.867188 3.292969 -15.953125 C 3.320312 -15.953125 3.121094 -15.699219 2.300781 -15.699219 Z M 5.25 -1.503906 C 5.308594 -1.21875 5.761719 -1.25 5.734375 -1.53125 C 5.195312 -5.5625 4.96875 -9.59375 5.082031 -13.652344 C 5.082031 -13.683594 4.882812 -13.652344 4.882812 -13.597656 C 4.769531 -11.582031 4.769531 -8.601562 4.855469 -6.585938 C 4.796875 -6.585938 4.710938 -7.578125 4.65625 -7.550781 C 4.628906 -7.804688 4.597656 -8.0625 4.597656 -8.261719 C 4.570312 -9.3125 4.511719 -10.359375 4.511719 -11.382812 C 4.511719 -12.433594 4.570312 -13.457031 4.570312 -14.503906 C 4.542969 -14.761719 4.316406 -14.875 4.117188 -14.847656 C 3.660156 -15.980469 2.214844 -14.929688 1.617188 -14.535156 C 1.53125 -14.449219 1.449219 -14.363281 1.390625 -14.25 C 1.050781 -13.910156 0.878906 -13.371094 0.792969 -12.832031 C 0.679688 -11.808594 0.710938 -10.757812 0.710938 -9.738281 C 0.679688 -7.609375 0.824219 -5.507812 1.078125 -3.40625 C 1.191406 -2.613281 1.21875 -1.761719 1.816406 -1.191406 C 1.957031 -1.078125 2.101562 -0.992188 2.242188 -0.9375 L 2.300781 -0.851562 C 2.839844 -0.3125 3.691406 -0.140625 4.371094 -0.484375 C 4.628906 -0.597656 4.683594 -0.824219 4.65625 -1.023438 C 4.882812 -1.105469 5.109375 -1.277344 5.25 -1.503906 Z M 2.101562 -13.085938 C 2.101562 -13.144531 2.214844 -13.3125 2.300781 -13.371094 L 2.328125 -13.371094 C 2.015625 -12.460938 1.957031 -11.410156 1.957031 -10.445312 C 1.929688 -9.167969 1.957031 -7.890625 1.957031 -6.613281 L 1.875 -6.613281 C 1.789062 -7.296875 1.703125 -7.976562 1.644531 -8.65625 C 1.644531 -8.6875 1.644531 -8.6875 1.644531 -8.714844 L 1.644531 -9 C 1.703125 -10.304688 1.675781 -11.808594 2.101562 -13.085938 Z M 2.101562 -13.085938 "/></g></g></g><g fill="#2b2b2b" fill-opacity="1"><g transform="translate(65.446211, 32.268761)"><g><path d="M 13.683594 -5.480469 C 14.335938 -7.75 14.449219 -10.132812 14.335938 -12.488281 L 14.335938 -13.625 C 14.335938 -14.308594 14.222656 -14.988281 14.164062 -15.667969 C 14.078125 -16.71875 13.964844 -18.082031 12.6875 -18.222656 C 12.375 -18.253906 12.121094 -17.941406 12.121094 -17.65625 L 12.121094 -17.371094 C 11.410156 -17.769531 10.390625 -17.203125 10.417969 -16.351562 C 10.445312 -13.796875 10.472656 -11.269531 10.304688 -8.742188 C 10.246094 -7.777344 10.304688 -5.988281 9.652344 -5.023438 C 9.253906 -4.683594 8.769531 -4.457031 8.230469 -4.34375 C 7.722656 -4.371094 7.296875 -4.597656 6.898438 -4.910156 C 6.132812 -6.953125 5.621094 -9.082031 5.480469 -11.269531 C 5.421875 -12.320312 5.421875 -13.398438 5.507812 -14.476562 C 5.5625 -15.355469 6.019531 -16.40625 5.707031 -17.257812 C 5.449219 -17.882812 4.855469 -18.367188 4.171875 -18.453125 C 2.46875 -18.707031 1.589844 -16.976562 1.277344 -15.554688 C 0.425781 -11.894531 0.566406 -7.917969 1.957031 -4.398438 C 2.128906 -3.972656 2.527344 -3.832031 2.867188 -3.859375 C 3.179688 -3.207031 3.578125 -2.582031 4.058594 -2.015625 C 5.480469 -0.367188 8.117188 0.679688 10.078125 -0.566406 C 10.558594 -0.792969 11.070312 -1.25 11.328125 -1.53125 C 11.382812 -1.589844 11.441406 -1.644531 11.523438 -1.703125 C 12.605469 -2.695312 13.257812 -4.085938 13.683594 -5.480469 Z M 5.394531 -15.46875 C 4.96875 -12.972656 4.996094 -10.417969 5.449219 -7.917969 C 5.421875 -7.949219 5.394531 -7.949219 5.363281 -7.949219 C 5.28125 -8.289062 5.195312 -8.65625 5.136719 -9.027344 C 4.769531 -10.902344 4.769531 -12.859375 4.996094 -14.789062 C 5.109375 -15.015625 5.167969 -15.273438 5.222656 -15.527344 C 5.25 -15.46875 5.335938 -15.441406 5.394531 -15.46875 Z M 5.394531 -15.46875 "/></g></g></g><g fill="#2b2b2b" fill-opacity="1"><g transform="translate(79.922612, 32.268761)"><g><path d="M 13.597656 -10.304688 C 13.570312 -10.984375 13.570312 -11.667969 13.597656 -12.375 C 13.710938 -13.710938 13.996094 -15.101562 13.824219 -16.4375 C 13.738281 -17.203125 13.257812 -17.828125 12.433594 -17.828125 C 11.695312 -17.828125 11.042969 -17.203125 11.042969 -16.4375 C 11.070312 -15.953125 11.070312 -15.46875 11.070312 -14.988281 L 10.929688 -15.128906 C 10.359375 -15.640625 9.738281 -16.066406 9.113281 -16.464844 C 7.777344 -17.34375 6.386719 -17.96875 4.855469 -18.421875 C 4.683594 -18.480469 4.542969 -18.480469 4.429688 -18.453125 C 3.832031 -18.648438 3.207031 -18.820312 2.582031 -18.878906 C 1.617188 -18.960938 0.792969 -18.367188 0.566406 -17.429688 C 0.339844 -16.492188 0.851562 -15.667969 1.363281 -14.960938 C 2.414062 -13.597656 3.632812 -12.40625 4.96875 -11.328125 L 5.394531 -10.984375 C 5.789062 -10.589844 6.1875 -10.191406 6.558594 -9.765625 C 7.523438 -8.769531 8.429688 -7.75 9.3125 -6.699219 C 9.59375 -6.359375 9.878906 -6.019531 10.132812 -5.675781 C 10.191406 -5.507812 10.277344 -5.363281 10.332031 -5.222656 C 10.445312 -4.996094 10.703125 -4.457031 10.558594 -4.144531 C 10.558594 -4.058594 10.558594 -3.972656 10.472656 -3.890625 C 10.246094 -3.546875 9.679688 -3.492188 9.3125 -3.464844 C 8.6875 -3.40625 8.089844 -3.40625 7.492188 -3.464844 C 7.152344 -3.492188 6.8125 -3.546875 6.472656 -3.660156 C 6.132812 -3.917969 5.820312 -4.230469 5.535156 -4.511719 C 5.023438 -5.054688 4.683594 -5.761719 4.429688 -6.445312 C 3.777344 -8.316406 3.691406 -10.332031 3.09375 -12.207031 C 2.867188 -12.886719 2.300781 -13.144531 1.617188 -13.058594 C 1.050781 -12.972656 0.625 -12.433594 0.511719 -11.921875 C 0.339844 -11.097656 0.511719 -10.21875 0.625 -9.425781 C 0.738281 -8.515625 0.851562 -7.609375 1.078125 -6.726562 C 1.503906 -5.167969 1.816406 -3.578125 1.988281 -1.988281 C 2.042969 -1.703125 2.128906 -1.449219 2.300781 -1.25 C 2.382812 -0.738281 2.667969 -0.253906 2.980469 0.0585938 C 3.265625 0.339844 3.71875 0.339844 4.003906 0.0585938 C 4.371094 -0.253906 4.570312 -0.710938 4.683594 -1.191406 C 5.222656 -0.851562 5.820312 -0.597656 6.445312 -0.453125 C 7.351562 -0.199219 8.429688 -0.0859375 9.394531 -0.226562 L 9.480469 -0.226562 C 11.269531 -0.3125 13.199219 -1.644531 13.257812 -3.492188 C 13.371094 -4.230469 13.199219 -4.996094 12.886719 -5.707031 C 12.71875 -6.472656 12.320312 -7.183594 11.808594 -7.835938 C 11.070312 -8.769531 10.21875 -9.652344 9.394531 -10.53125 C 8.542969 -11.46875 7.636719 -12.375 6.726562 -13.257812 L 5.5625 -14.363281 C 6.300781 -14.191406 7.066406 -13.9375 7.777344 -13.625 C 9.140625 -13 10.390625 -12.121094 11.210938 -10.902344 C 11.242188 -10.902344 11.242188 -10.871094 11.269531 -10.871094 C 11.441406 -9.539062 11.921875 -7.664062 13.3125 -8.003906 C 13.710938 -8.117188 13.9375 -8.542969 13.824219 -8.914062 C 13.738281 -9.394531 13.625 -9.820312 13.597656 -10.304688 Z M 13.597656 -10.304688 "/></g></g></g><g fill="#2b2b2b" fill-opacity="1"><g transform="translate(92.104959, 32.457219)"><g><path d="M 12.75 0 L 7.828125 0 L 0.90625 -19.59375 L 5.171875 -19.59375 L 10.359375 -3.015625 L 15.640625 -19.59375 L 19.8125 -19.59375 Z M 12.75 0 "/></g></g></g><g fill="#2b2b2b" fill-opacity="1"><g transform="translate(108.851793, 32.457219)"><g><path d="M 6.4375 0 L 2.53125 0 L 2.53125 -19.59375 L 6.4375 -19.59375 Z M 6.4375 0 "/></g></g></g><g fill="#2b2b2b" fill-opacity="1"><g transform="translate(114.358116, 32.457219)"><g><path d="M 9.03125 -19.984375 C 11.257812 -19.984375 12.960938 -19.425781 14.140625 -18.3125 C 15.328125 -17.195312 16.035156 -15.703125 16.265625 -13.828125 L 12.265625 -13.828125 C 12.148438 -14.847656 11.804688 -15.640625 11.234375 -16.203125 C 10.671875 -16.773438 9.890625 -17.0625 8.890625 -17.0625 C 8.078125 -17.0625 7.410156 -16.863281 6.890625 -16.46875 C 6.378906 -16.070312 6.125 -15.492188 6.125 -14.734375 C 6.125 -13.898438 6.429688 -13.242188 7.046875 -12.765625 C 7.671875 -12.296875 8.757812 -11.882812 10.3125 -11.53125 C 12.445312 -11.03125 14.019531 -10.28125 15.03125 -9.28125 C 16.039062 -8.28125 16.546875 -6.984375 16.546875 -5.390625 C 16.546875 -3.609375 15.84375 -2.195312 14.4375 -1.15625 C 13.039062 -0.125 11.332031 0.390625 9.3125 0.390625 C 6.925781 0.390625 5.019531 -0.128906 3.59375 -1.171875 C 2.175781 -2.222656 1.375 -3.765625 1.1875 -5.796875 L 5.203125 -5.796875 C 5.398438 -4.753906 5.867188 -3.945312 6.609375 -3.375 C 7.347656 -2.8125 8.226562 -2.53125 9.25 -2.53125 C 10.164062 -2.53125 10.929688 -2.753906 11.546875 -3.203125 C 12.160156 -3.660156 12.46875 -4.257812 12.46875 -5 C 12.46875 -5.832031 12.164062 -6.503906 11.5625 -7.015625 C 10.96875 -7.523438 9.960938 -7.953125 8.546875 -8.296875 C 6.347656 -8.816406 4.707031 -9.515625 3.625 -10.390625 C 2.550781 -11.273438 2.015625 -12.5625 2.015625 -14.25 C 2.015625 -15.988281 2.695312 -17.378906 4.0625 -18.421875 C 5.425781 -19.460938 7.082031 -19.984375 9.03125 -19.984375 Z M 9.03125 -19.984375 "/></g></g></g><g fill="#2b2b2b" fill-opacity="1"><g transform="translate(128.834137, 32.457219)"><g><path d="M 18.421875 -19.59375 L 18.421875 -7.984375 C 18.421875 -7.054688 18.40625 -6.285156 18.375 -5.671875 C 18.238281 -3.898438 17.507812 -2.445312 16.1875 -1.3125 C 14.875 -0.175781 12.929688 0.390625 10.359375 0.390625 C 7.765625 0.390625 5.8125 -0.175781 4.5 -1.3125 C 3.1875 -2.445312 2.460938 -3.898438 2.328125 -5.671875 C 2.285156 -6.285156 2.265625 -7.054688 2.265625 -7.984375 L 2.265625 -19.59375 L 6.15625 -19.59375 L 6.15625 -7.578125 C 6.15625 -6.921875 6.175781 -6.445312 6.21875 -6.15625 C 6.3125 -5 6.703125 -4.101562 7.390625 -3.46875 C 8.085938 -2.84375 9.078125 -2.53125 10.359375 -2.53125 C 11.628906 -2.53125 12.609375 -2.84375 13.296875 -3.46875 C 13.992188 -4.101562 14.390625 -5 14.484375 -6.15625 C 14.515625 -6.445312 14.53125 -6.921875 14.53125 -7.578125 L 14.53125 -19.59375 Z M 18.421875 -19.59375 "/></g></g></g><g fill="#2b2b2b" fill-opacity="1"><g transform="translate(145.978353, 32.457219)"><g><path d="M 13.140625 -5.90625 L 6.5625 -5.90625 L 4.59375 0 L 0.421875 0 L 7.5 -19.59375 L 12.40625 -19.59375 L 19.328125 0 L 15.078125 0 Z M 9.875 -16.234375 L 7.546875 -9 L 12.15625 -9 Z M 9.875 -16.234375 "/></g></g></g><g fill="#2b2b2b" fill-opacity="1"><g transform="translate(162.384554, 32.457219)"><g><path d="M 16.671875 -3.265625 L 16.671875 0 L 2.53125 0 L 2.53125 -19.59375 L 6.4375 -19.59375 L 6.4375 -3.265625 Z M 16.671875 -3.265625 "/></g></g></g><g clip-path="url(#e7d6506500)"><g fill="#2b2b2b" fill-opacity="1"><g transform="translate(176.747036, 32.457219)"><g><path d="M 9.03125 -19.984375 C 11.257812 -19.984375 12.960938 -19.425781 14.140625 -18.3125 C 15.328125 -17.195312 16.035156 -15.703125 16.265625 -13.828125 L 12.265625 -13.828125 C 12.148438 -14.847656 11.804688 -15.640625 11.234375 -16.203125 C 10.671875 -16.773438 9.890625 -17.0625 8.890625 -17.0625 C 8.078125 -17.0625 7.410156 -16.863281 6.890625 -16.46875 C 6.378906 -16.070312 6.125 -15.492188 6.125 -14.734375 C 6.125 -13.898438 6.429688 -13.242188 7.046875 -12.765625 C 7.671875 -12.296875 8.757812 -11.882812 10.3125 -11.53125 C 12.445312 -11.03125 14.019531 -10.28125 15.03125 -9.28125 C 16.039062 -8.28125 16.546875 -6.984375 16.546875 -5.390625 C 16.546875 -3.609375 15.84375 -2.195312 14.4375 -1.15625 C 13.039062 -0.125 11.332031 0.390625 9.3125 0.390625 C 6.925781 0.390625 5.019531 -0.128906 3.59375 -1.171875 C 2.175781 -2.222656 1.375 -3.765625 1.1875 -5.796875 L 5.203125 -5.796875 C 5.398438 -4.753906 5.867188 -3.945312 6.609375 -3.375 C 7.347656 -2.8125 8.226562 -2.53125 9.25 -2.53125 C 10.164062 -2.53125 10.929688 -2.753906 11.546875 -3.203125 C 12.160156 -3.660156 12.46875 -4.257812 12.46875 -5 C 12.46875 -5.832031 12.164062 -6.503906 11.5625 -7.015625 C 10.96875 -7.523438 9.960938 -7.953125 8.546875 -8.296875 C 6.347656 -8.816406 4.707031 -9.515625 3.625 -10.390625 C 2.550781 -11.273438 2.015625 -12.5625 2.015625 -14.25 C 2.015625 -15.988281 2.695312 -17.378906 4.0625 -18.421875 C 5.425781 -19.460938 7.082031 -19.984375 9.03125 -19.984375 Z M 9.03125 -19.984375 "/></g></g></g></g></svg>